REM DIRINDEX 1\5,1\2\6,1\2\7,1\3\8,1\3\9,1\4\10,1\4\11,1\4\12
REM DIRNAME folder01,folder02,folder03,folder04,folder05,folder06,folder07,folder08,folder09,folder10,folder11,folder12
TITLE ""
FILE "EJE_DB3000_5th_1A_15.mp3" MP3
  TRACK 01 AUDIO
    TITLE "0:"
    INDEX 01 00:00:00
  TRACK 02 AUDIO
    TITLE "10:cjc026_07254"
    INDEX 01 00:00:05
  TRACK 03 AUDIO
    TITLE "0:"
    INDEX 01 00:00:72
  TRACK 04 AUDIO
    TITLE "11:cjc026_07255"
    INDEX 01 00:01:22
  TRACK 05 AUDIO
    TITLE "0:"
    INDEX 01 00:02:24
  TRACK 06 AUDIO
    TITLE "12:cjc026_07256"
    INDEX 01 00:02:49
  TRACK 07 AUDIO
    TITLE "0:"
    INDEX 01 00:03:43
  TRACK 08 AUDIO
    TITLE "10:cjc026_07257"
    INDEX 01 00:03:66
  TRACK 09 AUDIO
    TITLE "0:"
    INDEX 01 00:04:70
  TRACK 10 AUDIO
    TITLE "11:cjc026_07258"
    INDEX 01 00:05:20
  TRACK 11 AUDIO
    TITLE "0:"
    INDEX 01 00:06:30
  TRACK 12 AUDIO
    TITLE "12:cjc026_07259"
    INDEX 01 00:06:55
  TRACK 13 AUDIO
    TITLE "0:"
    INDEX 01 00:07:56
  TRACK 14 AUDIO
    TITLE "10:cjc026_07260"
    INDEX 01 00:08:07
  TRACK 15 AUDIO
    TITLE "0:"
    INDEX 01 00:08:73
  TRACK 16 AUDIO
    TITLE "11:cjc026_07261"
    INDEX 01 00:09:24
  TRACK 17 AUDIO
    TITLE "0:"
    INDEX 01 00:10:29
  TRACK 18 AUDIO
    TITLE "12:cjc026_07262"
    INDEX 01 00:10:53
  TRACK 19 AUDIO
    TITLE "0:"
    INDEX 01 00:11:44
  TRACK 20 AUDIO
    TITLE "10:cjc026_07263"
    INDEX 01 00:11:70
  TRACK 21 AUDIO
    TITLE "0:"
    INDEX 01 00:12:63
  TRACK 22 AUDIO
    TITLE "11:cjc026_07264"
    INDEX 01 00:13:14
  TRACK 23 AUDIO
    TITLE "0:"
    INDEX 01 00:14:19
  TRACK 24 AUDIO
    TITLE "12:cjc026_07265"
    INDEX 01 00:14:45
  TRACK 25 AUDIO
    TITLE "0:"
    INDEX 01 00:15:36
  TRACK 26 AUDIO
    TITLE "10:cjc026_07266"
    INDEX 01 00:15:64
  TRACK 27 AUDIO
    TITLE "0:"
    INDEX 01 00:16:59
  TRACK 28 AUDIO
    TITLE "11:cjc026_07267"
    INDEX 01 00:17:08
  TRACK 29 AUDIO
    TITLE "0:"
    INDEX 01 00:18:27
  TRACK 30 AUDIO
    TITLE "12:cjc026_07268"
    INDEX 01 00:18:52
  TRACK 31 AUDIO
    TITLE "0:"
    INDEX 01 00:19:48
  TRACK 32 AUDIO
    TITLE "10:cjc026_07269"
    INDEX 01 00:19:73
  TRACK 33 AUDIO
    TITLE "0:"
    INDEX 01 00:20:69
  TRACK 34 AUDIO
    TITLE "11:cjc026_07270"
    INDEX 01 00:21:19
  TRACK 35 AUDIO
    TITLE "0:"
    INDEX 01 00:22:34
  TRACK 36 AUDIO
    TITLE "12:cjc026_07271"
    INDEX 01 00:22:62
  TRACK 37 AUDIO
    TITLE "0:"
    INDEX 01 00:23:55
  TRACK 38 AUDIO
    TITLE "10:cjc026_07272"
    INDEX 01 00:24:06
  TRACK 39 AUDIO
    TITLE "0:"
    INDEX 01 00:24:74
  TRACK 40 AUDIO
    TITLE "11:cjc026_07273"
    INDEX 01 00:25:27
  TRACK 41 AUDIO
    TITLE "0:"
    INDEX 01 00:26:28
  TRACK 42 AUDIO
    TITLE "12:cjc026_07274"
    INDEX 01 00:26:56
  TRACK 43 AUDIO
    TITLE "0:"
    INDEX 01 00:27:47
  TRACK 44 AUDIO
    TITLE "10:cjc026_07275"
    INDEX 01 00:28:00
  TRACK 45 AUDIO
    TITLE "0:"
    INDEX 01 00:28:70
  TRACK 46 AUDIO
    TITLE "11:cjc026_07276"
    INDEX 01 00:29:21
  TRACK 47 AUDIO
    TITLE "0:"
    INDEX 01 00:30:30
  TRACK 48 AUDIO
    TITLE "12:cjc026_07277"
    INDEX 01 00:30:55
  TRACK 49 AUDIO
    TITLE "0:"
    INDEX 01 00:31:51
  TRACK 50 AUDIO
    TITLE "10:cjc026_07278"
    INDEX 01 00:32:01
  TRACK 51 AUDIO
    TITLE "0:"
    INDEX 01 00:32:68
  TRACK 52 AUDIO
    TITLE "11:cjc026_07279"
    INDEX 01 00:33:21
  TRACK 53 AUDIO
    TITLE "0:"
    INDEX 01 00:34:30
  TRACK 54 AUDIO
    TITLE "12:cjc026_07280"
    INDEX 01 00:34:57
  TRACK 55 AUDIO
    TITLE "0:"
    INDEX 01 00:35:47
  TRACK 56 AUDIO
    TITLE "10:cjc026_07281"
    INDEX 01 00:35:74
  TRACK 57 AUDIO
    TITLE "0:"
    INDEX 01 00:36:66
  TRACK 58 AUDIO
    TITLE "11:cjc026_07282"
    INDEX 01 00:37:16
  TRACK 59 AUDIO
    TITLE "0:"
    INDEX 01 00:38:33
  TRACK 60 AUDIO
    TITLE "12:cjc026_07283"
    INDEX 01 00:38:61
  TRACK 61 AUDIO
    TITLE "0:"
    INDEX 01 00:39:52
  TRACK 62 AUDIO
    TITLE "10:cjc026_07284"
    INDEX 01 00:40:03
  TRACK 63 AUDIO
    TITLE "0:"
    INDEX 01 00:40:73
  TRACK 64 AUDIO
    TITLE "11:cjc026_07285"
    INDEX 01 00:41:26
  TRACK 65 AUDIO
    TITLE "0:"
    INDEX 01 00:42:21
  TRACK 66 AUDIO
    TITLE "12:cjc026_07286"
    INDEX 01 00:42:47
  TRACK 67 AUDIO
    TITLE "0:"
    INDEX 01 00:43:42
  TRACK 68 AUDIO
    TITLE "10:cjc026_07287"
    INDEX 01 00:43:68
  TRACK 69 AUDIO
    TITLE "0:"
    INDEX 01 00:44:60
  TRACK 70 AUDIO
    TITLE "11:cjc026_07288"
    INDEX 01 00:45:10
  TRACK 71 AUDIO
    TITLE "0:"
    INDEX 01 00:46:04
  TRACK 72 AUDIO
    TITLE "12:cjc026_07289"
    INDEX 01 00:46:29
  TRACK 73 AUDIO
    TITLE "0:"
    INDEX 01 00:47:21
